<?xml version="1.0" standalone="no"?>
<!DOCTYPE svg PUBLIC "-//W3C//DTD SVG 20010904//EN"
 "http://www.w3.org/TR/2001/REC-SVG-20010904/DTD/svg10.dtd">
<svg version="1.0" xmlns="http://www.w3.org/2000/svg" width="1092.000000pt" height="303.000000pt" viewBox="0 0 1092.000000 303.000000" preserveAspectRatio="xMidYMid meet">

<g transform="translate(0.000000,303.000000) scale(0.100000,-0.100000)" fill="#000000" stroke="none">

<path fill="#ee3124" stroke="none" d="M0 2235 l0 -795 245 0 245 0 0 365 0 365 190 0 190 0 2 -362 3 -363 245 0 245 0 3 793 2 792 -250 0 -250 0 0 -330 0 -330 -190 0 -190 0 0 330 0 330 -245 0 -245 0 0 -795z"/>
<path fill="#ee3124" stroke="none" d="M9902 2238 l3 -793 220 0 220 0 3 793 2 792 -225 0 -225 0 2 -792z"/>
<path fill="#ee3124" stroke="none" d="M10480 2235 l0 -795 220 0 220 0 0 795 0 795 -220 0 -220 0 0 -795z"/>
<path fill="#ee3124" stroke="none" d="M1985 2625 c-138 -30 -231 -80 -321 -172 -117 -118 -171 -272 -161 -458 12 -207 87 -356 240 -471 79 -59 130 -81 242 -105 320 -67 631 47 752 276 59 113 78 195 77 335 -1 107 -5 137 -27 206 -30 91 -101 200 -169 258 -58 50 -190 113 -274 131 -85 18 -278 18 -359 0z m245 -161 c78 -67 93 -144 88 -479 -5 -294 -11 -326 -78 -396 -32 -34 -43 -39 -80 -39 -37 0 -48 5 -81 39 -68 72 -74 107 -74 436 l0 290 29 63 c16 35 42 74 58 87 41 34 96 34 138 -1z"/>
<path fill="#ee3124" stroke="none" d="M3735 2634 c-113 -17 -202 -59 -272 -127 l-53 -51 0 72 0 72 -230 0 -230 0 0 -580 0 -580 230 0 230 0 0 421 c0 264 4 427 10 439 6 11 36 37 67 60 48 34 64 40 107 40 32 0 61 -6 75 -16 49 -35 51 -52 51 -514 l0 -430 228 2 227 3 3 420 c2 283 0 442 -8 487 -14 81 -59 160 -117 204 -71 54 -224 92 -318 78z"/>
<path fill="#ee3124" stroke="none" d="M4771 2620 c-144 -39 -261 -113 -338 -215 -87 -114 -117 -218 -117 -395 1 -115 3 -132 31 -207 39 -101 88 -178 158 -241 118 -108 238 -153 430 -160 216 -7 370 35 510 140 74 56 117 122 130 201 l6 37 -100 0 -100 0 -10 -36 c-18 -66 -59 -112 -129 -146 -58 -29 -77 -33 -168 -36 -117 -5 -159 6 -211 51 -54 47 -63 79 -63 217 l0 120 408 2 407 3 -2 83 c-8 290 -167 505 -428 577 -38 11 -112 18 -200 21 -118 3 -152 1 -214 -16z m274 -144 c58 -38 94 -152 95 -298 l0 -58 -170 0 -170 0 0 63 c1 159 39 263 110 300 40 21 97 18 135 -7z"/>
<path fill="#ee3124" stroke="none" d="M8930 2620 c-296 -79 -459 -293 -460 -602 0 -117 14 -176 65 -284 79 -163 232 -280 417 -318 88 -18 243 -21 336 -6 195 32 377 147 421 266 12 30 21 66 21 79 0 25 -1 25 -98 25 l-98 0 -12 -45 c-16 -59 -69 -117 -135 -146 -41 -18 -75 -24 -159 -27 -97 -4 -111 -2 -161 21 -32 14 -64 38 -78 58 -22 31 -24 45 -27 172 l-4 137 408 0 407 0 -6 103 c-15 289 -170 491 -432 563 -36 10 -113 18 -195 20 -112 3 -148 1 -210 -16z m253 -135 c69 -33 107 -131 107 -277 l0 -88 -165 0 -165 0 0 85 c0 113 15 177 54 228 51 67 104 83 169 52z"/>
<path fill="#ee3124" stroke="none" d="M5574 2592 c21 -34 456 -1170 456 -1190 0 -32 -49 -139 -85 -186 -26 -34 -79 -66 -109 -66 -13 0 -13 6 5 41 36 67 11 164 -53 212 -30 22 -115 34 -172 23 -76 -14 -136 -97 -136 -188 1 -109 62 -183 181 -219 193 -59 374 27 475 227 23 43 153 354 289 691 137 337 251 610 253 608 2 -2 79 -250 172 -552 l168 -548 194 -3 195 -2 88 322 c48 178 90 327 93 332 3 5 51 -139 107 -320 l103 -329 189 -3 190 -2 156 568 c86 313 157 574 157 581 0 7 -33 11 -102 11 l-103 0 -84 -315 c-47 -173 -88 -312 -91 -308 -5 7 -83 259 -175 571 l-16 52 -202 0 -202 0 -84 -307 c-46 -170 -86 -312 -89 -317 -3 -5 -31 76 -64 180 -32 104 -77 246 -99 317 l-40 127 -316 -2 -316 -3 -103 -250 c-57 -137 -107 -259 -112 -269 -6 -14 -33 45 -113 252 l-104 272 -253 0 c-139 0 -251 -4 -248 -8z"/>

<path fill="#303030" stroke="none" d="M2436 495 c-87 -31 -126 -104 -126 -240 0 -170 69 -255 209 -255 110 0 177 46 205 140 34 113 12 256 -48 316 -52 52 -156 69 -240 39z m174 -43 c56 -28 80 -87 80 -197 -1 -156 -46 -215 -166 -215 -71 0 -115 24 -148 80 -17 29 -21 52 -21 135 0 114 15 152 75 192 42 29 128 31 180 5z"/>
<path fill="#303030" stroke="none" d="M4927 496 c-82 -30 -118 -91 -125 -216 -10 -187 61 -280 213 -280 144 0 215 84 215 255 0 98 -22 166 -65 204 -57 50 -157 65 -238 37z m190 -52 c49 -35 67 -88 67 -189 0 -152 -49 -215 -169 -215 -120 0 -169 62 -169 215 0 107 19 156 74 193 30 20 45 23 102 20 48 -3 76 -10 95 -24z"/>
<path fill="#303030" stroke="none" d="M0 480 c0 -18 7 -20 85 -20 l85 0 0 -225 c0 -218 1 -225 20 -225 19 0 20 7 20 225 l0 225 85 0 c78 0 85 2 85 20 0 19 -7 20 -190 20 -183 0 -190 -1 -190 -20z"/>
<path fill="#303030" stroke="none" d="M520 255 c0 -238 1 -245 20 -245 19 0 20 7 20 115 l0 115 150 0 150 0 0 -115 0 -115 25 0 25 0 0 245 0 245 -25 0 -25 0 0 -110 0 -110 -150 0 -150 0 0 110 c0 103 -1 110 -20 110 -19 0 -20 -7 -20 -245z"/>
<path fill="#303030" stroke="none" d="M1110 255 l0 -245 181 0 c166 0 180 1 177 18 -3 15 -20 17 -161 20 l-157 3 0 94 0 95 135 0 c128 0 135 1 135 20 0 19 -7 20 -135 20 l-135 0 0 90 0 89 152 3 c136 3 153 5 156 21 3 16 -10 17 -172 17 l-176 0 0 -245z"/>
<path fill="#303030" stroke="none" d="M1830 255 c0 -238 1 -245 20 -245 19 0 20 7 20 90 l0 90 98 0 c119 0 170 19 195 73 24 49 22 134 -3 175 -31 50 -71 62 -210 62 l-120 0 0 -245z m262 194 c23 -12 48 -67 48 -105 0 -39 -28 -90 -56 -103 -14 -6 -67 -11 -119 -11 l-95 0 0 115 0 115 101 0 c55 0 109 -5 121 -11z"/>
<path fill="#303030" stroke="none" d="M2867 383 c20 -65 52 -174 73 -243 34 -114 39 -125 61 -125 22 0 27 13 80 200 32 110 58 202 59 205 1 3 21 -62 44 -145 81 -282 74 -265 99 -265 20 0 28 20 92 232 39 127 71 237 73 245 2 7 -5 13 -17 13 -21 0 -30 -23 -112 -307 -18 -62 -35 -111 -37 -109 -2 2 -29 95 -61 207 -50 179 -60 204 -78 207 -17 3 -24 -4 -31 -30 -5 -18 -31 -111 -57 -205 -27 -95 -51 -173 -54 -173 -4 0 -33 92 -65 205 -54 188 -61 205 -82 205 l-22 0 35 -117z"/>
<path fill="#303030" stroke="none" d="M3580 255 l0 -245 181 0 c166 0 180 1 177 18 -3 15 -20 17 -156 20 l-152 3 0 94 0 95 130 0 c123 0 130 1 130 20 0 19 -7 20 -130 20 l-130 0 0 90 0 90 150 0 c143 0 150 1 150 20 0 19 -7 20 -175 20 l-175 0 0 -245z"/>
<path fill="#303030" stroke="none" d="M4100 256 c0 -239 1 -246 20 -246 19 0 20 7 20 95 l0 95 83 0 82 0 50 -95 c41 -77 54 -95 73 -95 12 0 22 3 22 6 0 3 -23 47 -51 97 -46 84 -49 93 -33 102 71 39 99 116 73 196 -24 73 -49 83 -205 87 l-134 4 0 -246z m259 189 c34 -17 41 -32 41 -91 0 -90 -36 -114 -170 -114 l-90 0 0 110 0 110 95 0 c65 0 105 -5 124 -15z"/>
<path fill="#303030" stroke="none" d="M5410 255 l0 -245 25 0 25 0 0 110 0 110 130 0 c123 0 130 1 130 20 0 19 -7 20 -130 20 l-130 0 0 95 0 95 145 0 c138 0 145 1 145 20 0 19 -7 20 -170 20 l-170 0 0 -245z"/>

<path d="M6208 500 c-94 -28 -139 -96 -146 -220 -8 -142 41 -240 135 -268 60 -18 161 -15 208 7 39 17 95 72 95 92 0 5 -20 19 -44 31 l-45 21 -25 -30 c-31 -37 -79 -48 -132 -31 -58 19 -76 61 -71 163 5 115 30 145 123 145 38 0 51 -5 74 -30 l28 -30 41 23 c22 12 41 27 41 33 0 22 -44 67 -84 85 -43 20 -147 24 -198 9z"/>
<path d="M6750 501 c-56 -17 -91 -43 -117 -88 -22 -39 -28 -61 -31 -132 -9 -187 55 -271 213 -279 178 -9 260 71 260 253 0 176 -76 256 -240 254 -33 0 -71 -4 -85 -8z m163 -111 c55 -44 59 -209 6 -262 -23 -23 -36 -28 -79 -28 -28 0 -60 5 -72 11 -64 34 -65 251 -1 288 32 18 117 13 146 -9z"/>
<path d="M9040 498 c-91 -26 -131 -90 -138 -218 -9 -183 55 -270 208 -278 92 -5 147 12 193 59 20 22 37 43 37 47 0 5 -21 18 -46 30 l-46 23 -19 -25 c-46 -58 -152 -54 -189 7 -24 39 -27 160 -6 212 18 43 42 55 106 55 45 0 55 -4 77 -29 l26 -29 43 21 c24 11 44 27 44 35 0 24 -64 79 -105 91 -48 13 -137 13 -185 -1z"/>
<path d="M7200 255 l0 -245 55 0 55 0 0 152 0 152 112 -152 112 -152 53 0 53 0 0 245 0 245 -55 0 -55 0 0 -161 0 -161 -117 161 -118 161 -47 0 -48 0 0 -245z"/>
<path d="M7800 255 l0 -245 55 0 55 0 0 152 0 153 112 -153 112 -152 53 0 53 0 0 245 0 245 -55 0 -54 0 -3 -157 -3 -158 -115 157 -115 158 -47 0 -48 0 0 -245z"/>
<path d="M8400 255 l0 -245 195 0 195 0 0 45 0 45 -135 0 -135 0 0 55 0 55 115 0 115 0 0 45 0 45 -115 0 -115 0 0 55 0 55 135 0 135 0 0 45 0 45 -195 0 -195 0 0 -245z"/>
<path d="M9430 450 l0 -50 75 0 75 0 0 -195 0 -195 60 0 60 0 0 195 0 195 75 0 75 0 0 50 0 50 -210 0 -210 0 0 -50z"/>
<path d="M9970 255 l0 -245 195 0 195 0 0 45 0 45 -135 0 -135 0 0 55 0 55 110 0 110 0 0 45 0 45 -110 0 -110 0 0 55 0 55 130 0 130 0 0 45 0 45 -190 0 -190 0 0 -245z"/>
<path d="M10480 255 l0 -245 134 0 c136 0 179 8 229 42 93 65 105 309 19 391 -50 48 -89 57 -242 57 l-140 0 0 -245z m272 134 c29 -15 48 -70 48 -136 0 -109 -42 -151 -152 -152 l-48 -1 0 150 0 150 66 0 c36 0 74 -5 86 -11z"/>
</g>
</svg>
